HIERARCHY
ROOT reference
{
  OFFSET 0 0 0
  CHANNELS 6 Xposition Yposition Zposition Zrotation Xrotation Yrotation
  JOINT Hips
  {
    OFFSET 340.57 87.5694 214.797
    CHANNELS 3 Zrotation Xrotation Yrotation
    JOINT RightUpLeg
    {
      OFFSET -9.35418 -1.55218 -0.019184
      CHANNELS 3 Zrotation Xrotation Yrotation
      JOINT RightLeg
      {
        OFFSET -0.0482219 -41.8948 0.0725956
        CHANNELS 3 Zrotation Xrotation Yrotation
        JOINT RightFoot
        {
          OFFSET -1.00159 -42.3965 -1.97064
          CHANNELS 3 Zrotation Xrotation Yrotation
          End Site
          {
            OFFSET 0 -7.69 17.5
          }
        }
      }
    }
    JOINT LeftUpLeg
    {
      OFFSET 9.33628 -1.64535 -0.0795185
      CHANNELS 3 Zrotation Xrotation Yrotation
      JOINT LeftLeg
      {
        OFFSET 0.124871 -41.8725 -0.08325
        CHANNELS 3 Zrotation Xrotation Yrotation
        JOINT LeftFoot
        {
          OFFSET 0.728222 -40.8097 2.1196
          CHANNELS 3 Zrotation Xrotation Yrotation
          End Site
          {
            OFFSET 0 -7.69 17.5
          }
        }
      }
    }
    JOINT Spine
    {
      OFFSET -0.0135102 14.2943 0.0647361
      CHANNELS 3 Zrotation Xrotation Yrotation
      JOINT Spine1
      {
        OFFSET 0.0181502 9.72385 0.0148045
        CHANNELS 3 Zrotation Xrotation Yrotation
        JOINT Spine2
        {
          OFFSET 0.0557859 10.1166 -0.00979693
          CHANNELS 3 Zrotation Xrotation Yrotation
          JOINT Spine3
          {
            OFFSET 0.0359868 9.71757 0.00306838
            CHANNELS 3 Zrotation Xrotation Yrotation
            JOINT Neck
            {
              OFFSET 0.139197 10.3803 0.0501204
              CHANNELS 3 Zrotation Xrotation Yrotation
              JOINT Head
              {
                OFFSET 0.148012 9.47645 -0.000545472
                CHANNELS 3 Zrotation Xrotation Yrotation
                End Site
                {
                  OFFSET 0 15.95 0
                }
              }
            }
            JOINT RightShoulder
            {
              OFFSET -3.16276 6.92807 0.0312834
              CHANNELS 3 Zrotation Xrotation Yrotation
              JOINT RightArm
              {
                OFFSET -12.7681 0.0492996 0.0890957
                CHANNELS 3 Zrotation Xrotation Yrotation
                JOINT RightForeArm
                {
                  OFFSET -26.4761 -0.090776 0.147076
                  CHANNELS 3 Zrotation Xrotation Yrotation
                  JOINT RightHand
                  {
                    OFFSET -25.9655 0.0607057 -0.248467
                    CHANNELS 3 Zrotation Xrotation Yrotation
                    JOINT RightHandThumb1
                    {
                      OFFSET -2.48905 0.190105 3.12053
                      CHANNELS 3 Zrotation Xrotation Yrotation
                      JOINT RightHandThumb2
                      {
                        OFFSET -3.68274 0 0
                        CHANNELS 3 Zrotation Xrotation Yrotation
                        JOINT RightHandThumb3
                        {
                          OFFSET -2.55832 0 0
                          CHANNELS 3 Zrotation Xrotation Yrotation
                          End Site
                          {
                            OFFSET -2.194 0 0
                          }
                        }
                      }
                    }
                    JOINT RightInHandIndex
                    {
                      OFFSET -3.22368 0.508421 1.97842
                      CHANNELS 3 Zrotation Xrotation Yrotation
                      JOINT RightHandIndex1
                      {
                        OFFSET -5.21684 -0.091368 0.999158
                        CHANNELS 3 Zrotation Xrotation Yrotation
                        JOINT RightHandIndex2
                        {
                          OFFSET -3.61937 0 0
                          CHANNELS 3 Zrotation Xrotation Yrotation
                          JOINT RightHandIndex3
                          {
                            OFFSET -2.0521 0 0
                            CHANNELS 3 Zrotation Xrotation Yrotation
                            End Site
                            {
                              OFFSET -1.805 0 0
                            }
                          }
                        }
                      }
                    }
                    JOINT RightInHandMiddle
                    {
                      OFFSET -3.38211 0.517263 0.756737
                      CHANNELS 3 Zrotation Xrotation Yrotation
                      JOINT RightHandMiddle1
                      {
                        OFFSET -5.17411 -0.084 0.313895
                        CHANNELS 3 Zrotation Xrotation Yrotation
                        JOINT RightHandMiddle2
                        {
                          OFFSET -3.94947 0 0
                          CHANNELS 3 Zrotation Xrotation Yrotation
                          JOINT RightHandMiddle3
                          {
                            OFFSET -2.47579 0 0
                            CHANNELS 3 Zrotation Xrotation Yrotation
                            End Site
                            {
                              OFFSET -1.975 0 0
                            }
                          }
                        }
                      }
                    }
                    JOINT RightInHandRing
                    {
                      OFFSET -3.36516 0.537895 -0.128947
                      CHANNELS 3 Zrotation Xrotation Yrotation
                      JOINT RightHandRing1
                      {
                        OFFSET -4.63474 -0.022105 -0.478947
                        CHANNELS 3 Zrotation Xrotation Yrotation
                        JOINT RightHandRing2
                        {
                          OFFSET -3.44238 0 0
                          CHANNELS 3 Zrotation Xrotation Yrotation
                          JOINT RightHandRing3
                          {
                            OFFSET -2.3881 0 0
                            CHANNELS 3 Zrotation Xrotation Yrotation
                            End Site
                            {
                              OFFSET -1.857 0 0
                            }
                          }
                        }
                      }
                    }
                    JOINT RightInHandPinky
                    {
                      OFFSET -3.16105 0.469368 -1.20179
                      CHANNELS 3 Zrotation Xrotation Yrotation
                      JOINT RightHandPinky1
                      {
                        OFFSET -4.14105 -0.022105 -1.09053
                        CHANNELS 3 Zrotation Xrotation Yrotation
                        JOINT RightHandPinky2
                        {
                          OFFSET -2.75653 0 0
                          CHANNELS 3 Zrotation Xrotation Yrotation
                          JOINT RightHandPinky3
                          {
                            OFFSET -1.74189 0 0
                            CHANNELS 3 Zrotation Xrotation Yrotation
                            End Site
                            {
                              OFFSET -1.645 0 0
                            }
                          }
                        }
                      }
                    }
                  }
                }
              }
            }
            JOINT LeftShoulder
            {
              OFFSET 3.20588 6.97332 0.0254387
              CHANNELS 3 Zrotation Xrotation Yrotation
              JOINT LeftArm
              {
                OFFSET 12.8648 0.0341024 0.0247643
                CHANNELS 3 Zrotation Xrotation Yrotation
                JOINT LeftForeArm
                {
                  OFFSET 26.5059 -0.0470976 -0.0807017
                  CHANNELS 3 Zrotation Xrotation Yrotation
                  JOINT LeftHand
                  {
                    OFFSET 26.0013 -0.0100885 -0.0649647
                    CHANNELS 3 Zrotation Xrotation Yrotation
                    JOINT LeftHandThumb1
                    {
                      OFFSET 2.48905 0.190105 3.12053
                      CHANNELS 3 Zrotation Xrotation Yrotation
                      JOINT LeftHandThumb2
                      {
                        OFFSET 3.68274 0 0
                        CHANNELS 3 Zrotation Xrotation Yrotation
                        JOINT LeftHandThumb3
                        {
                          OFFSET 2.55832 0 0
                          CHANNELS 3 Zrotation Xrotation Yrotation
                          End Site
                          {
                            OFFSET 2.194 0 0
                          }
                        }
                      }
                    }
                    JOINT LeftInHandIndex
                    {
                      OFFSET 3.22368 0.508421 1.97842
                      CHANNELS 3 Zrotation Xrotation Yrotation
                      JOINT LeftHandIndex1
                      {
                        OFFSET 5.21684 -0.091368 0.999158
                        CHANNELS 3 Zrotation Xrotation Yrotation
                        JOINT LeftHandIndex2
                        {
                          OFFSET 3.61937 0 0
                          CHANNELS 3 Zrotation Xrotation Yrotation
                          JOINT LeftHandIndex3
                          {
                            OFFSET 2.0521 0 0
                            CHANNELS 3 Zrotation Xrotation Yrotation
                            End Site
                            {
                              OFFSET 1.805 0 0
                            }
                          }
                        }
                      }
                    }
                    JOINT LeftInHandMiddle
                    {
                      OFFSET 3.38211 0.517263 0.756737
                      CHANNELS 3 Zrotation Xrotation Yrotation
                      JOINT LeftHandMiddle1
                      {
                        OFFSET 5.17411 -0.084 0.313895
                        CHANNELS 3 Zrotation Xrotation Yrotation
                        JOINT LeftHandMiddle2
                        {
                          OFFSET 3.94947 0 0
                          CHANNELS 3 Zrotation Xrotation Yrotation
                          JOINT LeftHandMiddle3
                          {
                            OFFSET 2.47579 0 0
                            CHANNELS 3 Zrotation Xrotation Yrotation
                            End Site
                            {
                              OFFSET 1.975 0 0
                            }
                          }
                        }
                      }
                    }
                    JOINT LeftInHandRing
                    {
                      OFFSET 3.36516 0.537895 -0.128947
                      CHANNELS 3 Zrotation Xrotation Yrotation
                      JOINT LeftHandRing1
                      {
                        OFFSET 4.63474 -0.022105 -0.478947
                        CHANNELS 3 Zrotation Xrotation Yrotation
                        JOINT LeftHandRing2
                        {
                          OFFSET 3.44238 0 0
                          CHANNELS 3 Zrotation Xrotation Yrotation
                          JOINT LeftHandRing3
                          {
                            OFFSET 2.3881 0 0
                            CHANNELS 3 Zrotation Xrotation Yrotation
                            End Site
                            {
                              OFFSET 1.857 0 0
                            }
                          }
                        }
                      }
                    }
                    JOINT LeftInHandPinky
                    {
                      OFFSET 3.16105 0.469368 -1.20179
                      CHANNELS 3 Zrotation Xrotation Yrotation
                      JOINT LeftHandPinky1
                      {
                        OFFSET 4.14105 -0.022105 -1.09053
                        CHANNELS 3 Zrotation Xrotation Yrotation
                        JOINT LeftHandPinky2
                        {
                          OFFSET 2.75653 0 0
                          CHANNELS 3 Zrotation Xrotation Yrotation
                          JOINT LeftHandPinky3
                          {
                            OFFSET 1.74189 0 0
                            CHANNELS 3 Zrotation Xrotation Yrotation
                            End Site
                            {
                              OFFSET 1.645 0 0
                            }
                          }
                        }
                      }
                    }
                  }
                }
              }
            }
          }
        }
      }
    }
  }
}
MOTION
Frames: 2
Frame Time: 0.00833333
7.500000000000000000e+02 0.000000000000000000e+00 0.000000000000000000e+00 0.000000000000000000e+00 0.000000000000000000e+00 0.000000000000000000e+00 -3.730577625641273015e-02 9.035779535221036829e-01 1.049267901505442080e-01 2.091091744499871563e+00 -3.073810777279248896e+00 -5.335746876648558290e-01 -4.334158444618100847e-01 2.794849237147786436e+00 1.669877510936247644e-01 -3.489102082273612737e+00 2.373845934381765943e+00 4.736547647781235604e+00 3.692026908852131584e+00 -3.459424097430262024e-01 2.458059229421167391e+00 -3.400491035629914505e-01 2.951640429319731140e+00 -2.736485833518639277e-01 -4.382890038667979660e+00 -2.435108841267914048e+00 -1.643250148851399084e+00 7.216736074260622358e-01 -5.502710141657322085e-01 -1.511311576213939745e+00 1.270985579078740269e-01 -1.897035416651725315e-01 -3.862153093694976058e-01 2.132237625475910947e-01 -3.060079643790653003e-01 -6.933186551195192893e-01 -6.656923499314987280e-02 3.157903893649250532e-02 2.469535726012313248e-01 4.176602724560417590e-01 3.520854596668661074e-01 -4.530099821822825668e+00 -1.481239581538028371e+00 1.162083233163130613e-01 7.694112414210529494e+00 -8.202249611395225903e-01 -9.498924865517605065e-02 7.828270866599430500e-01 3.967163215245525176e+00 -5.780612060975715005e-01 -4.748661676006404875e+00 2.366113022329050242e-01 -7.930595655148472423e-01 9.666072098617679131e+00 -6.845136308414221382e-01 6.648763796656133040e-01 6.171928664958301169e+00 0.000000000000000000e+00 0.000000000000000000e+00 0.000000000000000000e+00 -2.463277337187015245e-15 7.049002857264712017e-16 0.000000000000000000e+00 -4.650932655293518566e-17 5.875202238774536816e-16 0.000000000000000000e+00 -6.591935759542195773e-16 -8.820225320113746449e-16 -3.570374221050208455e-16 0.000000000000000000e+00 0.000000000000000000e+00 0.000000000000000000e+00 0.000000000000000000e+00 -1.133419709470275010e-15 5.091823370229681152e-17 0.000000000000000000e+00 -8.703233961556131770e-16 -4.553831690108731829e-16 -6.591935759542195773e-16 -8.820225320113746449e-16 -3.570374221050208455e-16 0.000000000000000000e+00 -2.195833604942164237e-16 -7.565001916331758049e-16 0.000000000000000000e+00 -9.862872756906816400e-16 -2.977761591076859234e-15 0.000000000000000000e+00 -7.627610735388053670e-16 -1.088819494790701892e-15 -6.591935759542195773e-16 -8.820225320113746449e-16 -3.570374221050208455e-16 0.000000000000000000e+00 0.000000000000000000e+00 0.000000000000000000e+00 0.000000000000000000e+00 -1.836385752477505457e-15 1.332012469879439446e-15 0.000000000000000000e+00 1.481660472017916268e-15 -4.675584071123710712e-17 -6.591935759542195773e-16 -8.820225320113746449e-16 -3.570374221050208455e-16 0.000000000000000000e+00 0.000000000000000000e+00 0.000000000000000000e+00 0.000000000000000000e+00 -8.173531588888363956e-17 -3.769642100537094933e-16 0.000000000000000000e+00 1.612341572968961438e-15 -2.951351673839512066e-15 7.143040204666294413e-01 2.769893598797842582e+00 -2.342735627374194218e-01 2.115423774016831349e+00 -1.973416095356708588e+00 -2.638994348888126229e+00 1.812602000644262290e+01 8.356509554015634222e+00 1.325471233566143781e+01 -2.722315963269674288e+00 2.377222511483370937e+00 5.513406462041711142e-01 0.000000000000000000e+00 0.000000000000000000e+00 0.000000000000000000e+00 4.381115563644418258e-17 -3.124546583929753872e-16 0.000000000000000000e+00 -1.960723888040380102e-15 -5.144384600376164522e-16 0.000000000000000000e+00 -2.805915023880181036e-16 1.124012007239482956e-15 9.220721483333465668e-16 0.000000000000000000e+00 0.000000000000000000e+00 0.000000000000000000e+00 0.000000000000000000e+00 -2.054155961538774734e-15 3.398839602630980786e-15 0.000000000000000000e+00 -8.869331094959696799e-16 1.354281463316396018e-15 -2.805915023880181036e-16 1.124012007239482956e-15 9.220721483333465668e-16 0.000000000000000000e+00 -2.440087848222676825e-15 1.491475155783314991e-14 0.000000000000000000e+00 -9.815166749266117073e-16 3.986212591011418356e-15 0.000000000000000000e+00 -3.070095592452651815e-16 2.230725557830816584e-15 -2.805915023880181036e-16 1.124012007239482956e-15 9.220721483333465668e-16 0.000000000000000000e+00 0.000000000000000000e+00 0.000000000000000000e+00 0.000000000000000000e+00 7.460158086926894591e-16 3.358645902089115688e-15 0.000000000000000000e+00 1.882993063397469792e-16 -6.192272319494641421e-16 -2.805915023880181036e-16 1.124012007239482956e-15 9.220721483333465668e-16 0.000000000000000000e+00 0.000000000000000000e+00 0.000000000000000000e+00 0.000000000000000000e+00 1.625597454389482690e-15 5.038162288841511798e-16 0.000000000000000000e+00 -2.650579646717624552e-16 2.358137153218913610e-15
7.500000000000000000e+02 0.000000000000000000e+00 0.000000000000000000e+00 0.000000000000000000e+00 0.000000000000000000e+00 0.000000000000000000e+00 2.231189180152628321e-02 9.970450536778807660e-01 1.900407085344400226e-01 1.862359849224560104e+00 -3.386015306932834257e+00 -7.854749372977058997e-01 -3.709016961697137460e-01 2.819547577465446597e+00 1.255121407819514978e-01 -3.325558723149474538e+00 2.295587218709013833e+00 4.612288552466829117e+00 3.927604148469623357e+00 -6.413310640889342551e-01 2.593373345942594721e+00 -3.508814396897656507e-01 2.898349682206953659e+00 -1.798377922872118062e-01 -4.687342800238415208e+00 -2.594063019338525677e+00 -1.848729513923249357e+00 7.550243955109549043e-01 -4.674774266263828082e-01 -1.486040088764867706e+00 1.331843969896234214e-01 -1.679150219624601925e-01 -3.844168588730424996e-01 2.244182655141488958e-01 -2.700406492609190856e-01 -6.901374541983289479e-01 -7.013168387792961811e-02 3.404750387228575037e-02 2.383644434142538904e-01 3.979827506957898109e-01 3.961891860941474941e-01 -4.976777286875011974e+00 -1.547390875371341901e+00 7.097787524432225270e-02 7.801336766631129294e+00 -8.403325206186661456e-01 -1.911280327547870972e-01 8.848893507434372196e-01 4.483778984654175126e+00 -3.975675484382184544e-01 -4.849741314605423348e+00 5.578738082449465896e-01 -9.962024713458060843e-01 9.054529023593438808e+00 -9.193377165037170951e-01 4.504994687437280376e-01 6.375798391982628210e+00 0.000000000000000000e+00 0.000000000000000000e+00 0.000000000000000000e+00 -2.461777448218112709e-15 5.944356886999220633e-16 0.000000000000000000e+00 4.751748533252075627e-17 6.162426735051291369e-16 0.000000000000000000e+00 -6.221277420969062041e-16 -8.133349056311275254e-16 -3.098849822955266703e-16 0.000000000000000000e+00 0.000000000000000000e+00 0.000000000000000000e+00 0.000000000000000000e+00 -1.229059605742189497e-15 6.381960562459989141e-17 0.000000000000000000e+00 -8.424280574069683702e-16 -2.718418873068555434e-16 -6.221277420969062041e-16 -8.133349056311275254e-16 -3.098849822955266703e-16 0.000000000000000000e+00 -1.190417373083960798e-16 -7.239721795012416180e-16 0.000000000000000000e+00 -8.687541601380157576e-16 -2.847916637859325504e-15 0.000000000000000000e+00 -7.164717174129404930e-16 -9.281386473211170902e-16 -6.221277420969062041e-16 -8.133349056311275254e-16 -3.098849822955266703e-16 0.000000000000000000e+00 0.000000000000000000e+00 0.000000000000000000e+00 0.000000000000000000e+00 -1.868069834487457380e-15 1.378712103342744532e-15 0.000000000000000000e+00 1.605670392524418446e-15 3.335434149081683755e-16 -6.221277420969062041e-16 -8.133349056311275254e-16 -3.098849822955266703e-16 0.000000000000000000e+00 0.000000000000000000e+00 0.000000000000000000e+00 0.000000000000000000e+00 -1.508196299290492545e-16 -4.078561496291344871e-16 0.000000000000000000e+00 1.653863162603295459e-15 -2.726399100133577474e-15 8.587497006613257211e-01 2.783681482328730361e+00 -2.195505822535502860e-01 2.125661120088271350e+00 -1.828149462806877068e+00 -2.682963179995123681e+00 1.780208657208538980e+01 8.201319833257256775e+00 1.388650261308501044e+01 -2.762926518656855457e+00 2.344222326665490019e+00 8.682071918958788048e-01 0.000000000000000000e+00 0.000000000000000000e+00 0.000000000000000000e+00 7.447242883783906939e-17 -2.428474455055029638e-16 0.000000000000000000e+00 -1.957698796826749481e-15 -5.655169771940364709e-16 0.000000000000000000e+00 -3.256026312571616985e-16 1.135857591734400553e-15 9.288920189005006825e-16 0.000000000000000000e+00 0.000000000000000000e+00 0.000000000000000000e+00 0.000000000000000000e+00 -2.141606092426556674e-15 3.434510062231594671e-15 0.000000000000000000e+00 -8.653737913224871526e-16 1.343811197039531851e-15 -3.256026312571616985e-16 1.135857591734400553e-15 9.288920189005006825e-16 0.000000000000000000e+00 -2.503770640020767099e-15 1.461088258820143895e-14 0.000000000000000000e+00 -9.324287019693075169e-16 4.000588080900522728e-15 0.000000000000000000e+00 -3.149494999880214541e-16 2.180785642680320664e-15 -3.256026312571616985e-16 1.135857591734400553e-15 9.288920189005006825e-16 0.000000000000000000e+00 0.000000000000000000e+00 0.000000000000000000e+00 0.000000000000000000e+00 8.561739056233004520e-16 3.253601441012243035e-15 0.000000000000000000e+00 1.745151002650221288e-16 -6.006202225974975329e-16 -3.256026312571616985e-16 1.135857591734400553e-15 9.288920189005006825e-16 0.000000000000000000e+00 0.000000000000000000e+00 0.000000000000000000e+00 0.000000000000000000e+00 1.647846511374990456e-15 3.775000009027540994e-16 0.000000000000000000e+00 -3.274479935910856887e-16 2.395607501391123417e-15
